<?xml version="1.0" encoding="utf-8"?><svg xml:space="preserve" viewBox="0 0 100 100" y="0" x="0" xmlns="http://www.w3.org/2000/svg" id="圖層_1" version="1.1" width="70px" height="70px" xmlns:xlink="http://www.w3.org/1999/xlink" style="width:100%;height:100%;animation-play-state:paused" ><g class="ldl-scale" style="transform-origin:50% 50% 0px;transform:rotate(0deg) scale(0.9);animation-play-state:paused" ><path fill="#d1d1d1" d="M90.423 15.321a7.663 7.663 0 0 0-3.125-5.008L85.36 8.93a7.66 7.66 0 0 0-4.472-1.43 7.736 7.736 0 0 0-6.289 3.231L52.47 41.755l-5.45-3.888c-1.524-1.087-3.501-1.686-5.566-1.686-1.883 0-3.711.51-5.148 1.438l-4.052 2.616c-1.924 1.242-3.061 3.147-3.128 5.233a5.575 5.575 0 0 0-2.891 1.837c-.184.223-4.55 5.515-8.755 11.414C9.44 70.001 8.656 74.032 9.996 76.88c.853 1.812 2.655 2.894 4.819 2.894.125 0 .251-.003.385-.01a50.596 50.596 0 0 1 3.641-.065l.074.001a3.856 3.856 0 0 0 2.932-1.352 3.862 3.862 0 0 0 2.712 1.845 34.44 34.44 0 0 1 6.519 1.685c.216.079.435.138.656.177.187.118.387.222.598.309 2.072.852 4.096 1.918 6.372 3.352.577.363 1.226.56 1.881.59a3.841 3.841 0 0 0 1.315 1.517c3.566 2.405 6.935 4.677 11.066 4.677 1.862 0 3.734-.485 5.561-1.441 10.82-5.662 11.509-14.579 11.533-14.955.015-.23.012-.461 0-.695 2.241-.514 4.033-2.249 4.743-4.716l1.284-4.462c1.038-3.608-.483-7.973-3.54-10.154l-5.578-3.979 22.128-31.024a7.656 7.656 0 0 0 1.326-5.753z" style="fill:rgb(11, 29, 39);animation-play-state:paused" ></path>
<path fill="#464646" d="M72.383 65.164c.587-2.039-.346-4.715-2.073-5.946l-5.579-3.979a3.868 3.868 0 0 1-.9-5.38l22.128-31.025a3.868 3.868 0 0 0-.9-5.38l-1.938-1.382a3.868 3.868 0 0 0-5.38.9L55.612 43.996a3.868 3.868 0 0 1-5.38.9l-5.45-3.887c-1.728-1.232-4.599-1.298-6.381-.148l-4.052 2.616c-1.782 1.151-1.828 3.101-.1 4.332l32.644 23.285c1.728 1.231 3.621.571 4.207-1.467l1.283-4.463z" style="fill:rgb(151, 217, 255);animation-play-state:paused" ></path>
<path fill="#464646" d="M66.213 75.856c.057-.906-.499-2.078-1.237-2.604L31.602 49.449c-.739-.527-1.815-.386-2.394.314 0 0-21.963 26.567-14.217 26.148a54.017 54.017 0 0 1 3.923-.07c4.163-6.266 11.1-13.482 11.1-13.482s-3.263 7.337-4.849 14.023a38.514 38.514 0 0 1 7.24 1.872c1.622-1.899 2.893-3.597 2.893-3.597-.611 1.69-1.102 3.046-1.499 4.138 2.663 1.095 4.939 2.382 6.962 3.656 3.494-2.199 6.329-4.556 6.329-4.556s-1.222 3.252-3.033 6.728c4.68 3.157 8.105 5.411 12.681 3.016 9.024-4.719 9.475-11.783 9.475-11.783z" style="fill:rgb(151, 217, 255);animation-play-state:paused" ></path>
<metadata xmlns:d="https://loading.io/stock/" style="animation-play-state:paused" ><d:name style="animation-play-state:paused" >clean</d:name>
<d:tags style="animation-play-state:paused" >broom,clear,housekeep,reset,sweep,clean,map</d:tags>
<d:license style="animation-play-state:paused" >free</d:license>
<d:slug style="animation-play-state:paused" >dxemcl</d:slug></metadata></g><!-- generated by https://loading.io/ --></svg>