<?xml version="1.0" encoding="utf-8"?><svg xml:space="preserve" viewBox="0 0 100 100" y="0" x="0" xmlns="http://www.w3.org/2000/svg" id="圖層_1" version="1.1" width="70px" height="70px" xmlns:xlink="http://www.w3.org/1999/xlink" style="width:100%;height:100%;animation-play-state:paused" ><g class="ldl-scale" style="transform-origin:50% 50% 0px;transform:rotate(0deg) scale(0.8);animation-play-state:paused" ><path d="M76.039 77.802H91.5V64.783" stroke-miterlimit="10" stroke-width="4.34" stroke="#333" fill="none" style="stroke:rgb(255, 255, 255);animation-play-state:paused" ></path>
<path d="M91.5 35.217V22.198H76.039" stroke-miterlimit="10" stroke-width="4.34" stroke="#333" fill="none" style="stroke:rgb(255, 255, 255);animation-play-state:paused" ></path>
<path d="M8.5 35.217V22.198h15.461" stroke-miterlimit="10" stroke-width="4.34" stroke="#333" fill="none" style="stroke:rgb(255, 255, 255);animation-play-state:paused" ></path>
<path d="M8.5 64.783v13.019h15.461" stroke-miterlimit="10" stroke-width="4.34" stroke="#333" fill="none" style="stroke:rgb(255, 255, 255);animation-play-state:paused" ></path>
<circle fill="#c33737" r="4.909" cy="33.616" cx="50.644" style="fill:rgb(0, 186, 223);animation-play-state:paused" ></circle>
<path fill="#333" d="M58.637 38.051v-8.87h3.77c.948 0 1.637.08 2.066.239.43.159.773.443 1.032.85.258.407.387.873.387 1.398 0 .666-.196 1.215-.587 1.649-.391.434-.976.707-1.755.82.387.226.707.474.959.744s.592.75 1.02 1.44l1.083 1.73H64.47l-1.295-1.93c-.46-.69-.774-1.124-.944-1.304s-.349-.303-.539-.369c-.19-.067-.49-.1-.902-.1h-.363v3.703h-1.79zm1.791-5.119h1.325c.859 0 1.396-.036 1.609-.109a.968.968 0 0 0 .502-.375c.121-.177.182-.399.182-.666 0-.298-.08-.54-.239-.723-.159-.184-.384-.3-.675-.348-.145-.02-.581-.03-1.307-.03h-1.398v2.251z" style="fill:rgb(255, 255, 255);animation-play-state:paused" ></path>
<path fill="#333" d="M68.096 38.051v-8.87h6.577v1.501h-4.786v1.966h4.453v1.494h-4.453v2.414h4.955v1.494h-6.746z" style="fill:rgb(255, 255, 255);animation-play-state:paused" ></path>
<path fill="#333" d="M82.553 34.79l1.737.551c-.266.968-.709 1.687-1.328 2.157-.619.47-1.405.705-2.357.705-1.178 0-2.146-.402-2.904-1.207s-1.138-1.905-1.138-3.301c0-1.476.381-2.623 1.144-3.44.762-.817 1.765-1.225 3.007-1.225 1.085 0 1.966.321 2.644.962.403.379.706.924.908 1.634l-1.773.424c-.105-.46-.324-.823-.656-1.089-.333-.266-.737-.399-1.213-.399-.657 0-1.191.236-1.6.708-.409.472-.614 1.236-.614 2.293 0 1.121.202 1.92.605 2.396s.928.714 1.573.714c.476 0 .885-.151 1.228-.454s.587-.78.737-1.429z" style="fill:rgb(255, 255, 255);animation-play-state:paused" ></path>
<path d="M18.536 62.568h4.249v5.063h-4.249z" fill="#333" style="fill:rgb(255, 255, 255);animation-play-state:paused" ></path>
<path fill="#333" d="M37.319 62.568h-2.121v-3.436H14.557v12.025h20.641v-3.526h2.121v-5.063zm-4.291 6.419H16.727v-7.685h16.301v7.685z" style="fill:rgb(255, 255, 255);animation-play-state:paused" ></path>
<metadata xmlns:d="https://loading.io/stock/" style="animation-play-state:paused" ><d:name style="animation-play-state:paused" >recorder</d:name>
<d:tags style="animation-play-state:paused" >video,film,movie,clip,battery,camera,webcam,recorder,camera</d:tags>
<d:license style="animation-play-state:paused" >by</d:license>
<d:slug style="animation-play-state:paused" >jkk7vk</d:slug></metadata></g><!-- generated by https://loading.io/ --></svg>