<?xml version="1.0" encoding="utf-8"?><svg xml:space="preserve" viewBox="0 0 100 100" y="0" x="0" xmlns="http://www.w3.org/2000/svg" id="圖層_1" version="1.1" width="70px" height="70px" xmlns:xlink="http://www.w3.org/1999/xlink" style="width:100%;height:100%;animation-play-state:paused" ><g class="ldl-scale" style="transform-origin:50% 50% 0px;transform:rotate(0deg) scale(0.8);animation-play-state:paused" ><circle fill="#333" r="40" cy="50" cx="50" style="fill:rgb(51, 51, 51);animation-play-state:paused" ></circle>
<g style="animation-play-state:paused" ><path fill="#fff" d="M56.636 59.107a.996.996 0 0 1-.934-1.341c.96-2.603 2.38-4.918 4.22-6.879a13.541 13.541 0 0 0 3.677-9.297 13.47 13.47 0 0 0-4.289-9.912c-2.764-2.597-6.381-3.899-10.182-3.66-6.831.425-12.292 5.898-12.703 12.73-.223 3.705 1.023 7.25 3.509 9.983 1.908 2.097 3.373 4.458 4.354 7.017a.995.995 0 1 1-1.859.713c-.893-2.327-2.228-4.477-3.968-6.39-2.85-3.134-4.279-7.197-4.024-11.442.471-7.835 6.734-14.111 14.567-14.598 4.359-.272 8.501 1.219 11.67 4.196A15.652 15.652 0 0 1 65.59 41.59c0 3.975-1.497 7.761-4.216 10.659-1.657 1.766-2.937 3.854-3.804 6.206a.997.997 0 0 1-.934.652z" style="fill:rgb(255, 255, 255);animation-play-state:paused" ></path></g>
<g style="animation-play-state:paused" ><path fill="#fff" d="M57.774 62.172H42.225a.996.996 0 0 1 0-1.992h15.549a.996.996 0 0 1 0 1.992z" style="fill:rgb(255, 255, 255);animation-play-state:paused" ></path></g>
<g style="animation-play-state:paused" ><path fill="#fff" d="M57.774 65.585H42.225a.996.996 0 0 1 0-1.992h15.549a.996.996 0 0 1 0 1.992z" style="fill:rgb(255, 255, 255);animation-play-state:paused" ></path></g>
<g style="animation-play-state:paused" ><path fill="#fff" d="M57.774 68.998H42.225a.996.996 0 0 1 0-1.992h15.549a.996.996 0 0 1 0 1.992z" style="fill:rgb(255, 255, 255);animation-play-state:paused" ></path></g>
<g style="animation-play-state:paused" ><path fill="#fff" d="M52.88 74h-5.76a3.06 3.06 0 0 1-3.057-3.057.996.996 0 0 1 1.992 0c0 .588.478 1.066 1.066 1.066h5.76c.588 0 1.066-.478 1.066-1.066a.996.996 0 0 1 1.992 0A3.063 3.063 0 0 1 52.88 74z" style="fill:rgb(255, 255, 255);animation-play-state:paused" ></path></g>
<metadata xmlns:d="https://loading.io/stock/" style="animation-play-state:paused" ><d:name style="animation-play-state:paused" >bulb</d:name>


<d:tags style="animation-play-state:paused" >bulb,light,creative,creativity,idea,brainstorm,bright,luminance,think,smart,thought</d:tags>


<d:license style="animation-play-state:paused" >by</d:license>


<d:slug style="animation-play-state:paused" >ojnxj1</d:slug></metadata></g><!-- generated by https://loading.io/ --></svg>