<?xml version="1.0" encoding="utf-8"?>
<svg xml:space="preserve" viewBox="0 0 100 100" y="0" x="0" xmlns="http://www.w3.org/2000/svg" id="圖層_1" version="1.1" style="height: 100%; width: 100%; background: rgba(0, 0, 0, 0) none repeat scroll 0% 0%; shape-rendering: auto;" width="60px" height="60px"><g style="transform-origin: 50% 50% 0px; transform: rotate(0deg) scale(0.8);" class="ldl-scale"><g class="ldl-ani"><g class="ldl-layer"><g class="ldl-ani" style="transform-origin: 50px 50px 0px; transform: scale(1.3); animation: 1.11111s linear -0.833333s infinite normal forwards running heartbeat-2e6af07b-76bb-4968-9f93-d09567e42426;"><path fill="#d1d1d1" d="M27.378 92.5c-5.288 0-9.792-2.668-12.048-7.138-3.657-7.246-.386-16.816 7.446-21.787 2.617-1.661 5.486-2.62 8.354-2.8V27c0-3.22 2.071-6.01 5.154-6.941L76.816 7.81a7.24 7.24 0 0 1 2.098-.31 7.3 7.3 0 0 1 4.323 1.43 7.278 7.278 0 0 1 2.928 5.821V62.37c0 .285-.034.563-.097.828.162 6.045-3.306 12.289-8.911 15.847-2.919 1.852-6.15 2.831-9.344 2.831-5.288 0-9.792-2.669-12.048-7.139-3.656-7.246-.386-16.815 7.446-21.786 2.646-1.68 5.551-2.641 8.452-2.805V37.363l-26.029 7.832v28.381c0 .05-.001.098-.003.148.208 6.132-3.258 12.358-8.908 15.944-2.92 1.853-6.151 2.832-9.345 2.832z" style="fill: rgb(193, 193, 193);"></path></g></g><g class="ldl-layer"><g class="ldl-ani" style="transform-origin: 50px 50px 0px; transform: scale(1.3); animation: 1.11111s linear -1.11111s infinite normal forwards running heartbeat-2e6af07b-76bb-4968-9f93-d09567e42426;"><path fill="#454545" d="M82.626 14.752a3.71 3.71 0 0 0-4.787-3.554L37.308 23.446A3.712 3.712 0 0 0 34.669 27v37.568c-3.081-.717-6.694-.103-9.997 1.994-6.218 3.946-8.987 11.65-6.183 17.205 2.804 5.556 10.119 6.861 16.337 2.914 4.789-3.04 7.528-8.306 7.255-13.104h.013V42.565L75.2 32.603V53.97c-3.103-.753-6.756-.15-10.094 1.968-6.217 3.946-8.986 11.649-6.183 17.204 2.804 5.556 10.119 6.861 16.337 2.914 4.984-3.163 7.748-8.737 7.207-13.687h.159V14.752z" style="fill: rgb(237, 180, 38);"></path></g></g><metadata xmlns:d="https://loading.io/stock/"><d:name>music</d:name><d:tags>sound,rhythm,score,play,music,map</d:tags><d:license>free</d:license><d:slug>wvwbeo</d:slug></metadata></g></g><style id="heartbeat-2e6af07b-76bb-4968-9f93-d09567e42426" data-anikit="">@keyframes heartbeat-2e6af07b-76bb-4968-9f93-d09567e42426
{
  0% {
    animation-timing-function: cubic-bezier(0.1678,0.6042,0.5465,3.0859);
    transform: scale(1.3);
  }
  30% {
    animation-timing-function: cubic-bezier(0.3206,0.3435,0.6825,0.6598);
    transform: scale(1.15);
  }
  31% {
    animation-timing-function: cubic-bezier(0.2811,0.5061,0.5347,0.909);
    transform: scale(1.1458);
  }
  100% {
    transform: scale(1);
  }
}</style><!-- [ldio] generated by https://loading.io/ --></svg>