<?xml version="1.0" encoding="utf-8"?>
<svg xml:space="preserve" viewBox="0 0 100 100" y="0" x="0" xmlns="http://www.w3.org/2000/svg" id="圖層_1" version="1.1" style="height: 100%; width: 100%; background: rgba(0, 0, 0, 0) none repeat scroll 0% 0%; shape-rendering: auto;" width="70px" height="70px"><g style="transform-origin: 50% 50% 0px; transform: rotate(0deg) scale(0.8);" class="ldl-scale"><g class="ldl-ani" style="transform-origin: 50px 50px 0px; transform: scale(0.91); animation: 2s linear 0s infinite normal forwards running breath-3d9f9086-da4e-4259-8bb0-86295f843f8c;"><g class="ldl-layer"><g class="ldl-ani" style="transform-origin: 50px 50px 0px;"><circle fill="#333" r="40" cy="50" cx="50" style="fill: rgb(237, 180, 38);"></circle></g></g><g class="ldl-layer"><g class="ldl-ani" style="transform-origin: 50px 50px 0px;"><g><g class="ldl-layer"><g class="ldl-ani" style="transform-origin: 50px 50px 0px;"><path fill="#f2f2f2" d="M50 32.066c-.555 0-1.006-.45-1.006-1.006v-4.054a1.006 1.006 0 0 1 2.012 0v4.054c0 .555-.451 1.006-1.006 1.006z" style="fill: rgb(29, 21, 10);"></path></g></g></g></g></g><g class="ldl-layer"><g class="ldl-ani" style="transform-origin: 50px 50px 0px;"><g><g class="ldl-layer"><g class="ldl-ani" style="transform-origin: 50px 50px 0px;"><path fill="#f2f2f2" d="M42.036 34.2c-.347 0-.686-.18-.872-.503l-2.027-3.511a1.006 1.006 0 1 1 1.742-1.006l2.027 3.511a1.006 1.006 0 0 1-.87 1.509z" style="fill: rgb(29, 21, 10);"></path></g></g></g></g></g><g class="ldl-layer"><g class="ldl-ani" style="transform-origin: 50px 50px 0px;"><g><g class="ldl-layer"><g class="ldl-ani" style="transform-origin: 50px 50px 0px;"><path fill="#f2f2f2" d="M36.204 40.031a.994.994 0 0 1-.502-.135l-3.511-2.027a1.006 1.006 0 1 1 1.006-1.742l3.511 2.027a1.006 1.006 0 0 1-.504 1.877z" style="fill: rgb(29, 21, 10);"></path></g></g></g></g></g><g class="ldl-layer"><g class="ldl-ani" style="transform-origin: 50px 50px 0px;"><g><g class="ldl-layer"><g class="ldl-ani" style="transform-origin: 50px 50px 0px;"><path fill="#f2f2f2" d="M34.071 47.995h-4.054a1.006 1.006 0 0 1 0-2.012h4.054a1.006 1.006 0 0 1 0 2.012z" style="fill: rgb(29, 21, 10);"></path></g></g></g></g></g><g class="ldl-layer"><g class="ldl-ani" style="transform-origin: 50px 50px 0px;"><g><g class="ldl-layer"><g class="ldl-ani" style="transform-origin: 50px 50px 0px;"><path fill="#f2f2f2" d="M32.695 57.986a1.005 1.005 0 0 1-.504-1.877l3.511-2.027a1.006 1.006 0 0 1 1.006 1.742l-3.511 2.027a.994.994 0 0 1-.502.135z" style="fill: rgb(29, 21, 10);"></path></g></g></g></g></g><g class="ldl-layer"><g class="ldl-ani" style="transform-origin: 50px 50px 0px;"><g><g class="ldl-layer"><g class="ldl-ani" style="transform-origin: 50px 50px 0px;"><path fill="#f2f2f2" d="M67.305 57.986a.994.994 0 0 1-.502-.135l-3.511-2.027a1.006 1.006 0 1 1 1.006-1.742l3.511 2.027a1.006 1.006 0 0 1-.504 1.877z" style="fill: rgb(29, 21, 10);"></path></g></g></g></g></g><g class="ldl-layer"><g class="ldl-ani" style="transform-origin: 50px 50px 0px;"><g><g class="ldl-layer"><g class="ldl-ani" style="transform-origin: 50px 50px 0px;"><path fill="#f2f2f2" d="M69.983 47.995h-4.054a1.006 1.006 0 0 1 0-2.012h4.054a1.006 1.006 0 0 1 0 2.012z" style="fill: rgb(29, 21, 10);"></path></g></g></g></g></g><g class="ldl-layer"><g class="ldl-ani" style="transform-origin: 50px 50px 0px;"><g><g class="ldl-layer"><g class="ldl-ani" style="transform-origin: 50px 50px 0px;"><path fill="#f2f2f2" d="M63.796 40.031a1.005 1.005 0 0 1-.504-1.877l3.511-2.027a1.006 1.006 0 0 1 1.006 1.742l-3.511 2.027a1.004 1.004 0 0 1-.502.135z" style="fill: rgb(29, 21, 10);"></path></g></g></g></g></g><g class="ldl-layer"><g class="ldl-ani" style="transform-origin: 50px 50px 0px;"><g><g class="ldl-layer"><g class="ldl-ani" style="transform-origin: 50px 50px 0px;"><path fill="#f2f2f2" d="M57.964 34.2a1.006 1.006 0 0 1-.87-1.509l2.027-3.511a1.006 1.006 0 1 1 1.742 1.006l-2.027 3.511a1.006 1.006 0 0 1-.872.503z" style="fill: rgb(29, 21, 10);"></path></g></g></g></g></g><g class="ldl-layer"><g class="ldl-ani" style="transform-origin: 50px 50px 0px;"><g><g class="ldl-layer"><g class="ldl-ani" style="transform-origin: 50px 50px 0px;"><path fill="#f2f2f2" d="M55.485 61.691a1.007 1.007 0 0 1-.944-1.354 16.87 16.87 0 0 1 3.526-5.747 11.007 11.007 0 0 0 2.99-7.558c0-3.084-1.238-5.946-3.487-8.059a10.973 10.973 0 0 0-8.279-2.975c-5.553.345-9.993 4.795-10.327 10.35a10.986 10.986 0 0 0 2.852 8.116 18.574 18.574 0 0 1 3.634 5.857 1.006 1.006 0 1 1-1.879.721 16.582 16.582 0 0 0-3.244-5.224c-2.389-2.626-3.587-6.032-3.373-9.591.395-6.568 5.644-11.829 12.211-12.237 3.651-.223 7.126 1.022 9.782 3.518a13.12 13.12 0 0 1 4.121 9.525c0 3.332-1.255 6.505-3.534 8.935a14.871 14.871 0 0 0-3.106 5.067 1.006 1.006 0 0 1-.943.656z" style="fill: rgb(29, 21, 10);"></path></g></g></g></g></g><g class="ldl-layer"><g class="ldl-ani" style="transform-origin: 50px 50px 0px;"><g><g class="ldl-layer"><g class="ldl-ani" style="transform-origin: 50px 50px 0px;"><path fill="#f2f2f2" d="M56.426 64.224H43.574a1.006 1.006 0 0 1 0-2.012h12.852a1.006 1.006 0 0 1 0 2.012z" style="fill: rgb(29, 21, 10);"></path></g></g></g></g></g><g class="ldl-layer"><g class="ldl-ani" style="transform-origin: 50px 50px 0px;"><g><g class="ldl-layer"><g class="ldl-ani" style="transform-origin: 50px 50px 0px;"><path fill="#f2f2f2" d="M56.426 67.045H43.574a1.006 1.006 0 0 1 0-2.012h12.852a1.006 1.006 0 0 1 0 2.012z" style="fill: rgb(29, 21, 10);"></path></g></g></g></g></g><g class="ldl-layer"><g class="ldl-ani" style="transform-origin: 50px 50px 0px;"><g><g class="ldl-layer"><g class="ldl-ani" style="transform-origin: 50px 50px 0px;"><path fill="#f2f2f2" d="M56.426 69.867H43.574a1.006 1.006 0 0 1 0-2.012h12.852a1.006 1.006 0 0 1 0 2.012z" style="fill: rgb(29, 21, 10);"></path></g></g></g></g></g><g class="ldl-layer"><g class="ldl-ani" style="transform-origin: 50px 50px 0px;"><g><g class="ldl-layer"><g class="ldl-ani" style="transform-origin: 50px 50px 0px;"><path fill="#f2f2f2" d="M52.381 74H47.62a2.713 2.713 0 0 1-2.71-2.71 1.006 1.006 0 0 1 2.012 0c0 .385.313.698.698.698h4.761a.699.699 0 0 0 .698-.698 1.006 1.006 0 0 1 2.012 0 2.713 2.713 0 0 1-2.71 2.71z" style="fill: rgb(29, 21, 10);"></path></g></g></g></g></g><g class="ldl-layer"><g class="ldl-ani" style="transform-origin: 50px 50px 0px;"><g><g class="ldl-layer"><g class="ldl-ani" style="transform-origin: 50px 50px 0px;"><path fill="#f2f2f2" d="M55.39 49.266c-.484 0-.942-.24-1.257-.658l-.54-.718-.54.718c-.315.418-.773.658-1.256.658-.484 0-.942-.24-1.257-.658l-.54-.719-.54.718c-.315.418-.773.658-1.256.658-.484 0-.942-.24-1.257-.658l-.54-.718-.54.718c-.315.418-.773.658-1.256.658-.484 0-.942-.24-1.257-.658l-.762-1.014a1.005 1.005 0 1 1 1.608-1.209l.411.546.54-.717c.314-.418.772-.658 1.257-.658.484 0 .942.24 1.257.659l.539.717.54-.718c.314-.418.772-.658 1.257-.658.484 0 .942.24 1.257.659l.539.717.54-.718c.314-.418.772-.658 1.257-.658.484 0 .942.24 1.257.659l.539.717.411-.547a1.007 1.007 0 0 1 1.609 1.209l-.762 1.014c-.317.418-.775.659-1.258.659z" style="fill: rgb(29, 21, 10);"></path></g></g></g></g></g><metadata xmlns:d="https://loading.io/stock/">
<d:name>bulb</d:name>
<d:tags>bulb,light,creative,creativity,idea,brainstorm,bright,luminance,think,smart,thought</d:tags>
<d:license>by</d:license>
<d:slug>mk0r9x</d:slug>
</metadata></g></g><style id="breath-3d9f9086-da4e-4259-8bb0-86295f843f8c" data-anikit="">@keyframes breath-3d9f9086-da4e-4259-8bb0-86295f843f8c
{
  0% {
    animation-timing-function: cubic-bezier(0.9647,0.2413,-0.0705,0.7911);
    transform: scale(0.9099999999999999);
  }
  51% {
    animation-timing-function: cubic-bezier(0.9226,0.2631,-0.0308,0.7628);
    transform: scale(1.02994);
  }
  100% {
    transform: scale(0.9099999999999999);
  }
}</style><!-- [ldio] generated by https://loading.io/ --></svg>